<svg width="359" height="274" viewBox="0 0 359 274" fill="none" xmlns="http://www.w3.org/2000/svg">
<path fill-rule="evenodd" clip-rule="evenodd" d="M164.048 295.923C156.167 295.949 148.509 296.219 140.605 296.245C108.478 296.354 76.0547 296.198 43.8107 294.889C34.6974 294.519 32.4225 294.529 23.3485 293.955C17.9908 293.934 1.89736 293.489 2.70302 286.157C3.05868 272.504 6.4237 258.905 7.48364 245.287C9.51782 219.688 11.25 193.286 21.4644 169.342C23.8288 163.624 28.9065 159.884 33.9332 156.522C38.9739 152.894 40.2111 148.866 44.8637 144.768C45.8473 143.902 51.4335 143.549 54.4394 141.351C58.814 138.152 60.9835 132.914 62.6159 132.023C63.8168 131.367 63.7948 126.841 66.2022 125.239C69.4326 123.089 79.7267 121.49 83.472 121.192C87.0667 120.904 93.3191 121.507 96.6918 122.83C102.316 125.035 104.56 129.242 107.036 134.662C139.761 144.823 169.672 162.029 178.961 196.735C186.972 225.843 187.265 257.05 184.17 286.903C183.552 289.085 183.985 292.506 182.108 293.955C188.632 294.331 164.934 295.683 164.048 295.923Z" fill="white"/>
<path fill-rule="evenodd" clip-rule="evenodd" d="M15.2048 267.183C15.8241 266.872 16.4696 266.517 17.177 266.491C18.3914 266.449 18.3931 264.551 17.177 264.594C16.1161 264.631 15.1845 265.076 14.2512 265.544C13.162 266.089 14.1201 267.726 15.2048 267.183ZM17.177 213.747C16.3481 213.747 15.5127 213.853 14.8761 214.435C14.4977 214.781 14.5277 215.427 14.8761 215.777C15.2491 216.152 15.8354 216.123 16.2126 215.777C16.0894 215.89 16.2114 215.778 16.2559 215.753C16.2667 215.748 16.2725 215.744 16.2753 215.741C16.2847 215.739 16.2943 215.737 16.3095 215.733C16.4083 215.708 16.5059 215.683 16.6057 215.665C16.6073 215.67 16.8166 215.651 16.8658 215.649C16.9698 215.646 17.0733 215.645 17.177 215.645C17.6895 215.645 18.1217 215.211 18.1217 214.696C18.1217 214.183 17.6876 213.747 17.177 213.747ZM26.0616 235.042C26.3322 236.234 28.1536 235.726 27.8836 234.536C27.491 232.808 27.5626 231.035 27.8836 229.299C28.1046 228.105 26.2833 227.597 26.0616 228.796C25.6764 230.877 25.5902 232.965 26.0616 235.042ZM28.4481 166.815C29.8553 166.479 31.2472 166.439 32.6867 166.438C33.9044 166.438 33.9026 164.54 32.6867 164.54C31.0812 164.541 29.5139 164.61 27.9457 164.984C26.7614 165.267 27.266 167.097 28.4481 166.815ZM33.1634 213.055C33.9796 212.645 34.796 212.235 35.6122 211.825C36.7015 211.278 35.7434 209.641 34.6586 210.186L32.2098 211.416C31.1208 211.963 32.0789 213.6 33.1634 213.055ZM33.5034 250.44C34.5387 251.94 35.9944 252.871 37.7413 253.337C38.9199 253.65 39.4181 251.818 38.2437 251.505C36.9944 251.173 35.8845 250.567 35.1351 249.483C34.446 248.483 32.8087 249.433 33.5034 250.44ZM40.0325 183.601C40.3128 183.075 40.7345 182.853 41.2578 182.841C42.4736 182.813 42.4739 180.915 41.2578 180.943C40.0651 180.97 38.9712 181.571 38.4013 182.643C37.8274 183.721 39.4594 184.679 40.0325 183.601ZM52.0178 196.505C52.3566 196.875 53.0133 196.866 53.354 196.505C53.5626 196.284 53.7378 196.036 53.8757 195.766C53.9281 195.663 53.9775 195.558 54.0351 195.458C54.0609 195.414 54.0894 195.37 54.1187 195.327C54.1288 195.318 54.1491 195.297 54.1704 195.274C54.5336 194.889 54.5242 194.32 54.1704 193.932C53.8316 193.561 53.1747 193.571 52.834 193.932C52.6258 194.153 52.4502 194.4 52.3126 194.671C52.2601 194.774 52.2107 194.878 52.1529 194.979C52.1271 195.023 52.0986 195.067 52.0693 195.11C52.0595 195.118 52.0391 195.14 52.0178 195.162C51.6546 195.548 51.6638 196.117 52.0178 196.505ZM53.0255 224.538C54.2559 225.102 55.6057 225.102 56.8363 224.538C57.3023 224.324 57.4128 223.646 57.1749 223.237C56.8995 222.764 56.346 222.685 55.8825 222.898C55.3243 223.155 54.5364 223.155 53.9789 222.898C53.5132 222.685 52.9651 222.76 52.6865 223.237C52.4472 223.649 52.5612 224.324 53.0255 224.538ZM56.3821 244.38C56.5935 244.881 57.0501 245.149 57.5839 245.17C58.1126 245.189 58.5064 244.718 58.5287 244.22C58.5427 243.898 58.3697 243.623 58.121 243.453C58.1206 243.435 58.1201 243.418 58.1201 243.399C58.1199 242.868 57.6874 242.473 57.1754 242.452C56.6654 242.428 56.2304 242.903 56.2306 243.399C56.2308 243.735 56.2514 244.067 56.3821 244.38ZM61.2571 275.923C62.7652 275.947 64.2386 276.309 65.7467 276.333C66.9651 276.354 66.9614 274.456 65.7467 274.435C64.2388 274.411 62.7654 274.049 61.2571 274.026C60.0386 274.005 60.0424 275.905 61.2571 275.923ZM67.5277 154.269C68.4104 155.114 69.5008 155.53 70.576 156.058C71.6652 156.592 72.6221 154.955 71.5296 154.418C70.6188 153.971 69.6106 153.641 68.8637 152.927C67.9827 152.083 66.645 153.425 67.5277 154.269ZM69.897 176.15C70.5165 175.84 71.162 175.485 71.8689 175.46C73.0836 175.417 73.0852 173.519 71.8689 173.562C70.8082 173.598 69.8768 174.043 68.9433 174.511C67.8537 175.057 68.812 176.694 69.897 176.15ZM81.2561 263.973C81.5357 263.446 81.9574 263.223 82.4807 263.211C83.697 263.185 83.6975 261.285 82.4807 261.313C81.288 261.341 80.1941 261.943 79.6242 263.013C79.0508 264.093 80.6823 265.05 81.2561 263.973ZM85.1897 222.748C85.5657 222.402 85.5395 221.758 85.1897 221.405C84.7815 220.996 84.3735 220.586 83.9651 220.176C83.5919 219.801 83.0063 219.828 82.6291 220.176C82.2531 220.522 82.2793 221.165 82.6291 221.518C83.0375 221.927 83.4453 222.339 83.8537 222.748C84.2271 223.124 84.8125 223.096 85.1897 222.748ZM89.8277 286.994C91.1908 286.964 92.4688 286.571 93.7523 286.141C94.9021 285.757 94.4062 283.923 93.2498 284.311C92.1342 284.683 91.0136 285.069 89.8277 285.097C88.6116 285.125 88.6111 287.023 89.8277 286.994ZM95.9499 246.4C97.1815 246.365 98.203 245.734 99.067 244.89C99.9405 244.039 98.6029 242.696 97.7307 243.55C97.2362 244.032 96.6659 244.481 95.9499 244.502C94.7343 244.535 94.7333 246.433 95.9499 246.4ZM92.1482 194.193C92.1332 194.699 91.9206 195.24 91.6085 195.572C90.7734 196.461 92.1079 197.805 92.9445 196.915C93.6348 196.181 94.0087 195.198 94.0377 194.193C94.0726 192.969 92.1829 192.974 92.1482 194.193ZM106.561 152.847C106.957 152.069 107.475 151.157 108.263 150.727C109.333 150.143 108.379 148.505 107.309 149.088C106.238 149.672 105.471 150.823 104.93 151.888C104.377 152.975 106.008 153.935 106.561 152.847ZM109.011 172.589C109.449 172.577 109.884 172.501 110.307 172.386C110.487 172.337 110.666 172.28 110.847 172.231C110.924 172.21 111.254 172.168 111.051 172.179C111.563 172.152 111.996 171.767 111.996 171.23C111.996 170.737 111.561 170.253 111.051 170.281C110.35 170.319 109.712 170.671 109.011 170.691C107.795 170.725 107.794 172.624 109.011 172.589ZM115.133 202.933H117.174C118.391 202.933 118.389 201.035 117.174 201.035H115.133C113.915 201.035 113.917 202.933 115.133 202.933ZM117.513 286.865C118.132 287.175 118.861 287.472 119.363 287.947C120.247 288.786 121.584 287.446 120.699 286.604C120.06 285.997 119.244 285.616 118.467 285.226C118.009 284.996 117.446 285.099 117.174 285.567C116.929 285.988 117.057 286.637 117.513 286.865ZM122.073 262.879C122.152 262.856 122.236 262.842 122.316 262.83C122.637 262.788 122.973 262.802 123.296 262.802C124.514 262.802 124.512 260.902 123.296 260.904C122.338 260.904 121.34 260.918 120.587 261.591C120.204 261.934 120.242 262.588 120.587 262.933C120.963 263.312 121.542 263.274 121.923 262.933C121.883 262.971 122.021 262.893 122.073 262.879ZM123.296 230.619C123.021 230.05 123.017 229.68 123.016 229.048C123.015 227.825 121.126 227.827 121.127 229.048C121.127 229.965 121.263 230.746 121.664 231.578C121.887 232.041 122.542 232.161 122.956 231.919C123.421 231.646 123.518 231.079 123.296 230.619ZM128.759 186.087C129.855 186.462 130.833 186.992 131.798 187.632C132.817 188.307 133.763 186.663 132.752 185.993C131.651 185.263 130.511 184.684 129.261 184.257C128.105 183.862 127.614 185.696 128.759 186.087ZM135.132 154.137C135.946 154.16 136.787 154.473 137.512 154.828C138.603 155.359 139.56 153.722 138.466 153.188C137.429 152.682 136.296 152.271 135.132 152.238C133.914 152.204 133.919 154.103 135.132 154.137ZM137.989 239.427C138.31 239.444 138.583 239.27 138.753 239.018C138.771 239.018 138.788 239.018 138.806 239.018C139.335 239.018 139.727 238.583 139.75 238.068C139.773 237.558 139.3 237.121 138.806 237.121C138.472 237.121 138.141 237.142 137.831 237.271C137.331 237.485 137.065 237.944 137.045 238.48C137.024 239.011 137.494 239.406 137.989 239.427ZM142.636 173.786C143.797 174.167 144.289 172.333 143.138 171.955C141.788 171.512 140.407 171.168 139.057 170.725C137.896 170.344 137.403 172.178 138.554 172.556C139.905 172.999 141.285 173.342 142.636 173.786ZM146.874 209.618C147.234 210.783 149.057 210.283 148.696 209.113C148.347 207.984 148.322 206.848 148.322 205.675C148.321 204.451 146.431 204.453 146.432 205.675C146.433 207.01 146.477 208.333 146.874 209.618ZM159.507 252.535C159.576 253.008 159.949 253.349 160.438 253.37C160.935 253.393 161.4 252.918 161.382 252.422C161.348 251.465 160.572 250.687 159.621 250.651C159.092 250.633 158.699 251.103 158.676 251.601C158.655 252.086 159.058 252.464 159.507 252.535ZM165.901 197.979C166.899 198.314 167.966 198.632 168.749 199.375C169.633 200.214 170.971 198.873 170.085 198.033C169.053 197.054 167.725 196.592 166.403 196.148C165.245 195.76 164.753 197.594 165.901 197.979ZM170.234 234.858C170.508 235.329 171.064 235.413 171.526 235.199C172.146 234.908 172.83 234.92 173.499 234.917C174.716 234.917 174.714 233.02 173.499 233.02C172.468 233.02 171.517 233.118 170.572 233.558C170.108 233.777 169.995 234.447 170.234 234.858ZM172.682 279.613C173.211 279.634 173.605 279.164 173.627 278.665C173.649 278.181 173.246 277.802 172.796 277.732C172.728 277.259 172.354 276.918 171.866 276.895C171.368 276.873 170.903 277.348 170.921 277.845C170.956 278.799 171.731 279.58 172.682 279.613ZM0.534496 286.792C0.855498 285.631 1.59022 284.695 2.14513 283.651C2.33126 283.298 2.39612 283.079 2.49704 282.823C2.63401 283.098 2.89998 283.305 3.29966 283.305C4.06692 283.305 4.96414 283.255 5.68013 283.585C6.14559 283.799 6.69418 283.723 6.97257 283.244C7.21186 282.832 7.0976 282.16 6.63377 281.946C5.57852 281.461 4.44435 281.407 3.29966 281.405C3.01705 281.405 2.80305 281.511 2.6518 281.668C2.21443 275.651 2.2252 269.628 2.63916 263.606C3.0805 257.17 4.09642 250.863 5.15941 244.509C5.67404 241.429 6.3425 238.318 6.21256 235.181C6.08261 232.065 4.75295 229.161 5.69535 226.035C6.07325 224.782 6.7204 223.635 7.14092 222.395C7.59186 221.062 7.55183 219.745 7.34625 218.364C6.92364 215.552 6.22216 212.773 7.34415 210.027C7.84005 208.81 8.64338 207.723 9.03041 206.465C9.51226 204.902 9.446 203.172 9.52654 201.551C9.6895 198.281 9.73187 194.989 10.0014 191.727C10.1217 190.265 10.3837 188.879 10.9815 187.538C11.5556 186.247 12.4081 185.073 12.7883 183.703C13.1662 182.356 13.1992 180.934 13.4024 179.555C13.615 178.098 13.948 176.663 14.3968 175.263C16.1306 169.843 19.3074 164.973 23.0606 160.752C27.0501 156.264 31.8188 152.885 36.8806 149.736C39.5422 148.08 42.2037 146.424 44.8635 144.768C44.9204 145.079 45.1175 145.364 45.4961 145.492C46.495 145.827 47.5614 146.145 48.3444 146.888C49.2287 147.726 50.5668 146.386 49.6806 145.546C48.7562 144.669 47.5942 144.207 46.4118 143.801C47.6237 143.034 48.8487 142.239 50.2163 141.796C51.4142 141.407 53.1805 141.746 54.1517 140.863C54.9143 140.168 55.1555 138.88 55.4481 137.935C55.8143 136.763 56.1306 135.527 56.5961 134.387C56.9127 133.609 57.3732 132.862 57.9541 132.259C58.2093 131.272 58.6771 130.37 59.5039 129.822C61.6673 128.384 64.3245 129.812 65.2763 131.863C66.063 131.86 66.8918 132.033 67.6572 132.081C69.2304 132.181 70.8057 132.226 72.3812 132.221C75.4636 132.211 78.5483 132.01 81.6048 131.599C87.0702 130.863 92.373 129.38 97.7464 128.225C97.7771 128.154 97.8127 128.082 97.8551 128.011C99.0126 126.061 101.897 126.39 103.713 127.128C104.492 127.444 105.286 127.843 105.732 128.583C106.205 128.903 106.613 129.293 106.885 129.703C107.447 130.55 107.882 132.259 109.023 132.401C109.774 132.494 110.537 132.349 111.299 132.458C112.254 132.591 113.109 132.928 113.99 133.313C120.698 136.238 127.633 139.492 134.912 140.626C136.62 140.892 138.358 141.167 139.842 142.128C141.046 142.909 141.977 143.982 142.971 144.999C143.94 145.992 144.738 146.43 146.12 146.608C147.797 146.825 149.25 147.289 150.475 148.514C151.493 149.532 152.157 150.832 152.956 152.014C153.768 153.22 154.961 153.898 156.199 154.598C159.125 156.255 161.851 158.255 164.225 160.654C169.225 165.714 172.253 172.216 175.305 178.552C178.604 185.405 181.689 192.341 183.828 199.66C185.926 206.845 187.174 214.237 187.75 221.697C188.356 229.527 188.443 237.386 188.949 245.219C189.199 249.132 189.391 253.05 189.585 256.965C189.775 260.834 190.051 264.709 190.007 268.582C189.92 276.069 188.431 283.58 185.825 290.59C185.174 292.332 184.455 294.054 183.687 295.747C183.013 297.235 180.711 297.068 179.988 295.747C179.823 295.444 179.693 295.131 179.584 294.813C177.695 294.83 175.787 294.682 173.909 294.858C170.592 295.168 167.269 295.342 163.944 295.549C157.363 295.958 150.771 296.231 144.188 296.61C143.549 296.645 142.911 296.683 142.272 296.72C146.963 282.134 146.355 266.362 147.097 251.192C147.157 249.967 145.267 249.974 145.207 251.192C144.462 266.428 145.097 282.24 140.24 296.85C138.355 296.979 136.474 297.134 134.598 297.365C133.082 297.546 131.558 297.762 130.028 297.687C128.292 297.605 126.596 297.205 124.902 296.859C121.825 296.229 118.86 296.513 115.771 296.901C112.466 297.315 109.15 297.546 105.824 297.692C92.5076 298.277 79.1009 298.811 65.7888 297.917C62.5671 297.701 59.3524 297.398 56.1519 296.984C52.8546 296.56 49.5928 295.846 46.298 295.439C43.0503 295.041 40.0646 296.135 36.8546 296.337C33.5811 296.542 30.2198 295.857 26.9768 295.462C25.9187 295.333 24.8597 295.208 23.8005 295.084C25.1641 285.694 25.9396 276.231 26.6928 266.774C26.7899 265.553 24.8995 265.565 24.8033 266.774C24.0562 276.159 23.298 285.548 21.9363 294.865C16.3207 294.209 10.6996 293.546 5.14255 292.523C3.56002 292.234 1.98708 291.761 1.03977 290.343C0.338524 289.292 0.196635 288.003 0.534496 286.792Z" fill="black"/>
<path fill-rule="evenodd" clip-rule="evenodd" d="M42.9699 87.6339C43.4784 83.1453 42.8205 73.7633 42.7763 73.1933C42.4976 69.59 44.178 55.3606 47.3551 56.6716C52.6843 52.4332 59.7821 51.4973 66.4192 51.0503C80.2057 50.1214 94.8718 52.2535 105.517 61.5748C110.782 66.4155 115.907 73.456 115.495 80.7867C120.279 87.7355 127.022 97.2672 121.062 105.391C119.036 107.986 115.817 108.952 113.271 110.918C108.153 115.066 104.941 121.019 99.774 125.142C86.084 137.502 62.8379 140.084 49.3874 126.026C38.9863 115.845 40.6681 100.613 42.4976 87.6339C43.7276 78.9078 41.9781 96.3905 42.9699 87.6339Z" fill="white"/>
<path fill-rule="evenodd" clip-rule="evenodd" d="M84.8361 32.0158C81.1489 31.2682 77.3629 30.8031 73.5977 30.943L73.3074 30.9545C70.4743 31.0681 66.8866 31.3197 64.4153 32.975C64.273 32.8315 64.0444 32.7579 63.837 32.8574C60.9002 34.2657 57.6698 35.2842 54.5776 36.2958C51.4994 37.3027 48.306 37.9675 45.0798 38.2354C43.866 38.3362 42.8272 39.6531 43.5958 40.8341C43.7787 41.1155 43.9566 41.3998 44.1341 41.6848C43.8374 41.6538 43.5408 41.6216 43.2441 41.5915C42.2678 41.4927 41.2926 42.5396 41.3504 43.4946C41.3867 44.0952 41.4511 44.6885 41.5467 45.2749C41.1748 45.2672 40.8051 45.3231 40.4481 45.4748C38.6396 46.2419 38.7656 48.406 38.9009 50.0523C39.0884 52.3371 39.9391 54.7571 41.5181 56.4671C40.339 57.6974 39.5043 59.1669 39.0065 60.912C38.6452 62.1863 38.4443 63.5436 38.5436 64.8701L38.5752 65.2673C38.6979 66.7069 38.9416 68.3005 39.9725 69.3361C40.5017 69.8702 41.1535 70.0646 41.7749 70.003C41.3991 73.3203 41.1582 76.6569 40.9316 79.9816L40.825 81.5705C40.3193 89.2544 39.9393 96.9881 40.0386 104.684C40.1311 111.877 41.5455 118.859 45.9365 124.699C49.9356 130.016 55.6773 133.937 62.1727 135.427C65.6733 136.232 69.247 136.288 72.7899 135.776C74.5073 135.527 76.236 135.145 77.866 134.542C79.6703 133.873 80.9672 132.888 82.1812 131.412C82.7553 130.712 82.479 129.222 81.3355 129.362C79.6064 129.572 78.0276 129.826 76.3697 130.34L76.1323 130.415C74.4811 130.947 72.771 131.343 71.0447 131.512C67.5085 131.856 63.9185 131.509 60.5312 130.432C55.0159 128.676 50.2659 124.763 47.2214 119.846C43.6075 114.018 43.199 107.402 43.2512 100.7C43.3071 93.3468 43.5452 85.9888 43.9337 78.6428L43.9999 77.4186C44.2055 73.6385 44.4038 69.8558 44.5783 66.0731C44.6328 64.8868 44.7155 63.6908 44.8644 62.5065C46.2271 61.7044 47.4481 60.5987 48.2442 59.2341C49.8433 59.8987 51.5249 60.3779 53.0723 60.7601C56.6565 61.6457 60.3774 61.8606 64.0255 61.3061C65.0095 61.7146 66.0131 62.0736 67.032 62.3824C67.3076 62.5051 67.583 62.6258 67.8581 62.7438C70.3149 63.7999 72.8068 64.6944 75.3999 65.3496L76.0369 65.509C77.4017 65.8471 78.8841 66.1799 80.3364 66.2845C80.575 66.377 80.8326 66.4553 81.1138 66.5242C82.4362 66.8468 83.8089 66.9488 85.1643 66.835C86.4849 66.7236 87.4392 65.3827 86.7117 64.1275C86.1803 63.2113 85.6438 62.2977 85.103 61.3865C86.9854 62.1743 88.9293 62.8294 90.8897 63.3846C92.8691 63.9448 94.8768 64.4169 96.8871 64.851C97.9618 65.0812 99.0409 65.2854 100.113 65.5156C100.881 65.6793 102.06 65.7648 102.686 66.2725C103.378 66.8303 103.574 68.1307 103.836 68.9328C104.181 69.9746 104.505 71.021 104.8 72.0794C105.388 74.1914 105.87 76.3341 106.243 78.4984C106.616 80.6649 106.867 82.8528 107.006 85.0479C107.145 87.2405 107.084 89.4474 107.308 91.6306C107.429 92.7887 108.666 93.3844 109.58 92.575C109.687 92.4802 109.796 92.3843 109.903 92.2872L110.062 92.1409C110.844 91.4288 111.602 90.6742 112.228 89.8249C112.341 89.6682 112.45 89.5043 112.552 89.3383C112.568 89.3383 112.582 89.3336 112.599 89.3216L112.772 89.1904C114.682 87.7621 117.874 85.8997 119.737 88.2729C120.33 89.0289 120.634 89.9916 120.886 90.9202L121.329 92.5823C121.615 93.6675 121.885 94.7586 122.042 95.8688C122.399 98.3558 122.219 101.222 120.516 103.216C119.836 104.013 118.898 104.582 117.852 104.732C117.269 104.813 116.692 104.713 116.113 104.64C115.525 104.566 114.959 104.684 114.37 104.628C113.435 104.535 113.026 105.66 113.376 106.367C113.565 106.747 113.787 107.074 114.04 107.352C113.837 107.527 113.643 107.717 113.456 107.917C112.904 108.095 112.408 108.477 112.037 108.982C111.737 109.39 111.581 109.834 111.555 110.302C111.522 110.418 111.494 110.537 111.467 110.657L110.961 111.484C110.849 111.665 110.738 111.844 110.627 112.02C109.337 114.06 107.906 115.788 106.127 117.416C104.414 118.982 102.556 120.385 100.947 122.064L100.758 122.264C99.2578 123.852 97.6769 125.774 98.2638 128.083C98.4151 128.676 99.2397 129.103 99.778 128.702C101.509 127.411 102.381 125.365 103.85 123.799C105.362 122.186 107.036 120.736 108.553 119.127C109.987 117.608 111.118 115.888 111.97 113.994C112.311 114.371 112.807 114.639 113.494 114.744C114.675 114.922 115.776 114.227 116.291 113.199C116.621 113.346 116.959 113.479 117.299 113.583C119.09 114.134 120.216 112.133 119.541 110.655C119.18 109.863 118.728 109.174 118.168 108.595C119.919 108.353 121.7 107.444 122.85 106.31C125.736 103.46 126.133 99.1767 125.483 95.3681C125.139 93.3486 124.544 91.3056 123.771 89.4096C123.637 89.0797 123.492 88.7474 123.334 88.4198C123.422 88.4175 123.511 88.3796 123.568 88.306C124.09 87.5895 124.725 87.0032 125.113 86.2011C125.469 85.4656 125.866 84.7204 126.147 83.954C126.726 82.3853 127.009 80.6151 127.198 78.9563C127.588 75.5607 127.437 72.1862 126.919 68.8117C126.039 63.0643 123.911 57.5641 120.776 52.7378C120.947 52.6477 121.111 52.5391 121.263 52.4104L121.338 52.3444L121.461 52.2334C122.355 51.4202 122.278 49.8959 121.461 49.0722L121.203 48.8124C120.876 48.4862 120.594 48.2275 120.066 47.8724C119.988 47.82 119.908 47.7706 119.828 47.7245C120.104 47.2117 120.2 46.6116 120.008 45.9498C119.337 43.6441 116.035 43.7257 113.942 44.7313C111.626 42.6551 109.059 40.8529 106.276 39.3935C99.6481 35.9193 92.1538 33.4965 84.8361 32.0158ZM119.096 92.7412C117.859 92.3354 116.215 93.1873 115.103 93.7C113.692 94.3502 112.492 95.3112 111.33 96.3269C110.752 96.8346 110.648 97.6651 110.792 98.3748C110.806 98.4458 110.82 98.5194 110.837 98.5931C110.99 99.35 111.831 99.9457 112.575 99.9243C114.132 99.8817 114.873 98.5314 115.755 97.3876C115.858 97.5727 115.988 97.7434 116.149 97.8716L116.258 97.957C116.623 98.2368 117.026 98.4604 117.509 98.4388C117.852 98.4221 118.18 98.3344 118.483 98.1754C119.239 97.7742 119.571 96.792 119.366 95.9922C119.239 95.4893 118.946 95.0951 118.563 94.8224L118.706 94.7243C119.011 94.511 119.289 94.286 119.506 93.9539L119.555 93.8754H119.536C119.772 93.4674 119.619 92.912 119.096 92.7412Z" fill="black"/>
<path fill-rule="evenodd" clip-rule="evenodd" d="M60.8001 116.622C62.5402 117.128 64.4079 117.173 66.1815 116.651C67.79 116.176 69.4419 115.132 70.6259 113.751C71.6776 112.524 72.3587 111.033 72.332 109.441C72.329 109.26 72.2644 109.108 72.1649 108.99C72.0576 108.863 71.908 108.776 71.7476 108.739C71.5828 108.7 71.4086 108.713 71.2602 108.781C71.1258 108.842 71.0108 108.947 70.9387 109.099C70.7568 109.339 70.5755 109.576 70.3936 109.806C68.9305 111.621 67.5137 112.977 65.3138 113.464C64.1201 113.727 62.9282 113.61 61.8343 113.208C60.6636 112.776 59.605 112.018 58.7757 111.048C58.4009 110.61 57.9584 110.431 57.5257 110.428C57.0351 110.424 56.5505 110.653 56.1855 111.019C55.8265 111.379 55.5861 111.868 55.5643 112.379C55.5453 112.827 55.691 113.296 56.0785 113.714C57.3552 115.092 59.0099 116.101 60.8001 116.622ZM60.8539 93.8902C59.0703 94.9795 56.3526 97.5194 58.2714 100.22C60.5299 102.601 63.7818 99.8707 65.3842 98.6361C66.8701 97.6793 68.5395 100.14 67.1609 101.257C55.5816 109.87 50.8825 94.175 59.9518 92.6096C60.9504 92.437 61.3213 93.5533 60.8539 93.8902ZM77.5388 89.0976C78.1119 88.7291 78.7865 88.6028 79.5339 88.9442C80.1178 89.2111 81.1422 90.1007 81.8551 91.2699C82.3428 92.0699 82.6886 93.0084 82.6165 93.9862C82.5999 94.2131 82.6833 94.3805 82.8151 94.5042C82.919 94.602 83.0693 94.6738 83.2459 94.6963C83.3957 94.7154 83.5634 94.6982 83.6996 94.6554C83.9591 94.5741 84.0963 94.405 84.148 94.2669C84.6472 92.9353 84.4323 91.4491 83.8727 90.1082C83.1178 88.2987 81.7467 86.7832 80.8486 86.2945C79.3114 85.4581 77.498 85.4195 75.9588 86.2717C74.6486 86.9969 73.8291 88.168 73.0143 89.3616C72.8411 89.6154 72.6692 89.8672 72.4915 90.1146C72.1354 90.6105 72.1 91.1022 72.2379 91.5239C72.3906 91.9911 72.7802 92.3852 73.2674 92.5917C73.7174 92.7824 74.24 92.8092 74.7024 92.6133C75.093 92.4478 75.4514 92.1252 75.6783 91.5777C76.0604 90.6557 76.6968 89.6384 77.5388 89.0976ZM48.4236 91.1488C48.8162 91.3543 49.1234 91.4162 49.5589 91.2852C49.7998 91.2125 50.0377 91.0731 50.2241 90.8859C50.4088 90.7004 50.5421 90.4697 50.5938 90.2136C50.7212 89.582 51.0654 88.9906 51.5556 88.6049C51.9747 88.2755 52.5037 88.1007 53.0904 88.1993C53.7235 88.3056 54.3266 88.7135 54.742 89.1944C54.8811 89.3553 54.9897 89.538 55.0993 89.7198C55.3039 90.0591 55.503 90.3747 55.7851 90.6242C55.8921 90.7189 56.0534 90.7846 56.2096 90.7846C56.273 90.7846 56.3374 90.7742 56.399 90.7549C57.0291 90.1195 57.1501 89.6375 57.13 89.1594C57.1087 88.6581 56.9118 88.1504 56.5938 87.6768C55.8481 86.5659 54.432 85.6549 53.4765 85.4484C52.1679 85.166 50.8682 85.5051 49.8261 86.2395C48.7539 86.995 47.9595 88.1682 47.7118 89.4903C47.6523 89.8087 47.6776 90.1522 47.7982 90.4502C47.9162 90.7415 48.1218 90.9908 48.4236 91.1488ZM74.6526 77.2519C75.4379 78.0206 76.3674 78.1398 77.3079 78.2457C77.8303 78.3052 78.2475 78.3529 78.658 78.446C79.786 78.7019 80.9012 79.0873 81.9185 79.6422C82.9822 80.2224 84.1412 80.922 84.975 81.8184C85.1733 82.0316 85.3601 82.2553 85.5472 82.4796C85.7179 82.6842 85.8823 82.881 86.0555 83.071C86.2545 83.289 86.4435 83.5176 86.6315 83.7454C86.7476 83.9378 86.7706 83.9851 86.794 84.0345C86.8293 84.1085 86.8703 84.1913 86.9171 84.2802C86.9811 84.4018 87.0562 84.5349 87.1349 84.6557C87.2656 84.8765 87.3358 84.9372 87.3964 84.9645C87.4971 85.0094 87.5924 85.0317 87.6851 85.0195C87.772 85.0085 87.8537 84.9664 87.9345 84.8979C88.3377 84.5556 88.4566 83.994 88.4444 83.3977C88.4259 82.493 88.0937 81.4913 87.7874 80.8754C87.0754 79.4445 86.0881 77.9571 84.9008 76.8891C83.546 75.6703 82.0637 74.7473 80.3611 74.1114C79.3032 73.7161 78.0782 73.3533 76.9256 73.3991C76.0958 73.4321 75.3037 73.6799 74.6498 74.2986C74.248 74.6784 74.0553 75.2188 74.0553 75.7587C74.0553 76.3094 74.2555 76.8632 74.6526 77.2519ZM46.8263 84.2915C46.8764 84.3738 46.9455 84.4305 47.0223 84.4646C47.103 84.5001 47.193 84.5104 47.2794 84.4958C47.3655 84.4812 47.4472 84.442 47.5121 84.3822C47.5741 84.3249 47.6214 84.2487 47.6427 84.1556C48.1642 81.8548 49.1766 80.1429 51.3374 79.0391C52.4004 78.4961 53.6228 78.1511 54.7799 77.876C55.1162 77.7961 55.4716 77.7441 55.8293 77.6916C56.9509 77.5273 58.0803 77.3387 58.8113 76.4282C59.252 75.8795 59.4367 75.1778 59.3323 74.5363C59.2339 73.9322 58.8825 73.3782 58.2438 73.0464C56.6535 72.2203 54.6774 73.0309 53.0714 73.7213C52.9525 73.7726 52.8354 73.8229 52.7212 73.8713C51.1506 74.5373 49.7184 75.4163 48.5411 76.6734C47.6069 77.6709 46.7413 79.1454 46.3927 80.6621C46.1028 81.9239 46.1709 83.2121 46.8263 84.2915Z" fill="black"/>
<path fill-rule="evenodd" clip-rule="evenodd" d="M55.8511 120.455C58.0509 118.486 60.5166 114.527 63.6767 117.659C64.4583 118.544 64.7748 120.528 65.9699 120.917C67.5571 121.435 69.1302 119.747 69.6711 118.452C71.8844 111.253 62.7355 109.278 57.5236 110.441C54.9773 111.492 53.1019 115.72 52.9886 117.927C52.9153 119.41 54.1646 121.591 55.8511 120.455ZM39.256 109.358C39.2775 109.263 39.3075 109.176 39.3435 109.098C40.3164 108.728 41.0862 109.105 41.562 109.809C41.5463 109.984 41.4943 110.161 41.4615 110.335C41.8287 111.112 42.1597 112.073 42.6573 112.744C42.7554 112.752 42.8572 112.741 42.9551 112.713C51.2014 113.578 47.1754 104.91 55.5395 102.757C62.005 101.685 73.6905 102.912 76.7406 109.674C79.1459 120.473 91.377 112.948 95.3929 107.332C99.6779 102.22 102.448 95.9744 105.12 89.9138C105.684 88.6313 107.446 89.5484 107.255 90.7789C109.724 95.7555 109.642 101.733 110.253 107.185C111.293 118.062 112.307 133.315 102.248 139.956C89.142 154.839 56.4147 160.091 41.2986 146.416C36.0658 135.114 36.7109 121.325 39.256 109.358Z" fill="black"/>
<path fill-rule="evenodd" clip-rule="evenodd" d="M47.8641 76.2429C42.3199 76.2429 39.1563 77.4406 37.9968 77.5339L37.9619 77.5365C37.4799 77.5675 37.0472 77.608 36.5934 77.7844C34.9245 78.4301 34.6526 80.1886 35.6264 81.2969C35.6948 83.5901 35.3946 86.2694 35.9097 88.5702C36.5452 98.2689 41.0851 99.9055 43.6658 100.503C44.9612 100.803 46.4969 100.922 47.873 100.606C50.2209 100.518 52.5419 99.7793 54.5279 98.4934C57.2935 96.7013 59.3476 93.947 60.0142 90.6779C60.3302 89.1197 60.4778 87.4979 60.3059 85.9139L60.2804 85.6956C61.1795 85.2637 62.2211 85.1821 63.2949 85.1437C63.8079 85.1254 64.3136 85.1089 64.8048 85.131C65.2848 85.1849 65.7592 85.2566 66.2352 85.3542C66.7547 85.5118 67.2455 85.7716 67.6985 86.1834L67.7297 86.7844C67.8149 88.2856 68.0111 89.7913 68.3136 91.2641C68.7604 93.4371 69.4789 95.5126 71.0083 97.0541C71.526 97.8308 72.1666 98.5242 72.9444 99.1248C75.7695 101.31 79.6075 102.112 83.1301 101.81C90.2816 101.197 94.415 95.4936 95.3677 93.0557L95.4246 92.9081C96.1127 91.0957 96.6613 88.7442 98.8358 88.3548L99.2982 88.2713C100.29 88.0841 101.206 87.8235 101.788 86.851C102.043 86.4263 102.174 85.9513 102.206 85.4671C102.546 85.4934 102.885 85.5183 103.223 85.5428C105.917 86.1152 122.08 86.6007 123.37 86.6007C123.37 86.6007 125.85 87.6493 126.897 86.8368C127.622 86.2718 127.861 85.5188 127.462 84.6659C126.859 83.3824 124.078 82.6104 122.843 82.3659C122.843 82.3659 102.916 82.5321 101.482 82.2589C100.595 81.3397 99.0074 81.4655 97.681 81.3201C96.5829 80.5335 95.047 80.0068 93.8337 79.6541C93.5864 79.56 93.3415 79.469 93.1034 79.3832C90.8791 78.5874 88.567 78.1658 86.2197 77.9393C83.7992 77.7084 81.3715 77.8128 78.965 78.1441C77.951 78.2824 76.9463 78.4611 75.9488 78.6949C74.1626 78.9314 72.3869 79.3211 70.6 79.7832L70.2424 79.8768C68.3609 80.3722 66.4272 80.8009 64.4794 80.4649C62.8938 80.1933 61.3689 79.58 59.9067 78.9171L59.7163 78.8303C56.5016 77.3557 51.481 76.2429 47.8641 76.2429ZM76.1422 81.635C77.3284 81.3728 77.8348 83.2103 76.6449 83.473C75.8023 83.6592 75.0882 84.086 74.6056 84.8093L74.5548 84.8879C73.9074 85.923 72.2703 84.9676 72.9221 83.9256C73.6557 82.7534 74.7955 81.9322 76.1422 81.635ZM41.4007 80.4957C41.8189 80.1999 42.4515 80.4195 42.6943 80.8376C42.9615 81.298 42.7866 81.8109 42.3949 82.1121L42.3551 82.1415C41.9957 82.396 41.6459 82.8519 41.6018 83.3189L41.5981 83.3775C41.551 84.6001 39.6597 84.6062 39.707 83.3775C39.7531 82.1754 40.4459 81.171 41.4007 80.4957Z" fill="black"/>
<path fill-rule="evenodd" clip-rule="evenodd" d="M335.413 178.586C333.355 170.565 331.461 167.164 327.804 164.376C324.383 161.769 319.389 159.579 312.105 157.979C304.514 156.646 304.299 152.684 302.398 146.316C301.843 144.402 299.091 143.893 297.904 145.272C297.736 145.091 297.563 144.925 297.382 144.774C297.544 143.862 296.219 141.245 296.263 140.371C296.724 131.256 293.758 126.679 286.347 124.977C284.737 124.607 273.793 124.389 272.222 124.825C265.355 126.732 258.595 132.788 259.63 140.083C257.474 142.913 255.364 144.64 252.037 145.552C244.636 146.496 237.235 147.335 229.831 148.054C215.338 150.337 201.751 158.042 192.465 169.28C191.608 170.317 191.36 171.725 192.116 172.831C191.524 175.379 188.19 181.559 190.815 183.306C186.5 193.668 176.577 213.696 176.558 219.418C176.48 243.456 179.065 274.743 202.678 288.046C203.624 288.979 203.76 290.014 204.17 291.401C205.207 295.777 208.977 298.905 213.105 298.651C233.435 299.105 253.126 296.612 273.456 296.492C282.421 296.438 293.203 297.783 300.99 298.679C308.78 299.575 316.64 298.783 324.116 296.492C324.746 297.489 326.02 298.07 327.312 297.783C335.06 296.238 341.325 291.441 346.783 286.2C348.452 283.152 354.964 274.47 352.374 271.446C354.723 261.483 354.601 250.776 350.431 241.285C351.021 239.547 349.944 237.636 350.431 235.839C350.782 234.539 351.683 234.002 352.138 232.714C352.774 230.903 352.081 228.474 351.363 226.626C351.068 225.704 351.903 224.712 352.138 223.773C353.24 219.339 350.714 219.73 348.895 216.766C348.921 216.757 349.394 214.641 349.391 214.651C349.67 213.141 348.972 211.205 348.363 209.945C347.951 209.092 347.071 208.559 346.193 208.657C347.076 205.647 348.192 203.143 349.391 200.244C351.515 195.134 354.2 190.24 357.249 185.614C358.497 183.72 356.82 181.526 354.802 181.397C348.263 180.979 341.798 180.034 335.413 178.586Z" fill="white"/>
<path fill-rule="evenodd" clip-rule="evenodd" d="M316.333 217.232C313.72 216.202 310.904 215.633 308.075 215.412C309.597 215.144 311.126 214.885 312.667 214.752C313.741 214.66 314.737 214.669 315.544 215.488C316.083 216.034 316.336 216.736 316.692 217.382C316.575 217.329 316.455 217.28 316.333 217.232ZM344.399 207.602C340.117 207.821 335.83 208.844 331.957 210.697C330.372 211.456 328.935 212.553 328.516 214.356C328.302 215.277 328.354 216.229 328.466 217.159C328.553 217.863 328.574 218.763 329.183 219.24C329.288 219.32 329.398 219.382 329.513 219.427C328.085 220.075 326.724 220.854 325.514 221.655C324.409 222.388 323.273 223.519 322.763 224.791C322.721 224.648 322.678 224.512 322.636 224.385C321.768 221.803 320.428 219.688 318.319 218.267C318.691 218.099 318.949 217.7 318.829 217.149C318.328 214.85 316.214 212.852 313.826 212.994C311.21 213.148 308.403 214.104 306.038 215.312C305.177 215.293 304.315 215.305 303.465 215.343C303.32 215.348 303.327 215.548 303.465 215.564C304.156 215.652 304.847 215.749 305.535 215.863C307.174 216.127 308.808 216.461 310.407 216.876C312.325 217.375 314.31 217.875 316.102 218.746C319.579 220.438 321.73 224.862 321.29 228.712C321.217 229.342 320.974 231.249 320.101 231.054C319.365 230.887 319.073 229.342 318.815 228.77C318.125 227.251 316.881 226.259 315.392 225.589C313.641 224.796 311.768 224.262 309.953 223.642C308.928 223.289 307.9 222.934 306.87 222.583C305.816 222.221 304.814 221.72 303.692 221.974C303.016 222.127 302.936 222.938 303.318 223.404C303.896 224.114 304.755 224.324 305.589 224.615C306.689 224.998 307.787 225.384 308.888 225.767C310.585 226.362 312.365 226.861 314.02 227.587L313.969 227.707C313.833 227.67 313.674 227.804 313.702 227.971C313.948 229.506 314.294 231.279 313.91 232.817C313.608 234.038 312.543 235.388 311.159 235.03C311.377 234.83 311.456 234.487 311.311 234.169C310.761 232.991 303.582 228.345 302.941 230.071C302.92 230.132 302.985 230.177 303.039 230.167C303.585 230.054 304.498 230.988 304.936 231.284C305.565 231.712 306.205 232.131 306.83 232.568C307.511 233.048 308.178 233.551 308.827 234.071C309.337 234.48 309.724 234.903 310.309 235.11C310.002 235.258 309.759 235.531 309.653 235.879C309.389 236.789 308.881 237.56 307.993 237.96C307.066 238.379 306.02 238.115 305.041 238.216C303.709 238.353 302.547 238.988 301.576 239.898C299.539 241.81 298.516 245.179 295.664 246.082C293.962 246.623 292.072 246.282 290.346 246.038C288.422 245.765 286.546 245.549 284.608 245.833C282.751 246.108 280.997 246.753 279.3 247.54C277.71 248.279 275.954 249.113 274.545 250.214C274.254 249.316 273.959 248.424 273.737 247.507C273.215 245.337 272.931 243.124 272.861 240.892C272.798 238.769 272.917 236.636 273.098 234.522C273.189 233.466 273.329 232.415 273.418 231.359C273.442 231.094 273.491 230.809 273.526 230.525C276.043 229.031 278.689 227.886 281.356 226.71C281.363 226.708 281.37 226.703 281.377 226.701C281.459 226.663 281.541 226.628 281.623 226.59C281.62 226.586 281.618 226.581 281.613 226.576C281.918 226.391 282.131 226.141 282.257 225.861C286.102 223.301 289.314 219.805 291.709 215.728C292.711 214.019 293.678 212.246 294.992 210.749C296.39 209.152 298.05 208.203 300.105 207.709C302.508 207.13 304.982 206.784 307.443 206.587C308.787 206.48 310.29 206.314 311.754 206.321C312.774 206.328 313.774 206.416 314.69 206.67C316.048 207.045 316.841 208.082 317.694 209.131C318.508 210.137 319.319 211.145 320.08 212.195C320.801 213.189 321.482 214.216 322.072 215.293C322.426 215.939 322.753 216.604 323.03 217.289C323.128 217.531 323.254 217.806 323.313 218.058C323.374 218.312 323.264 218.58 323.547 218.58C322.379 218.597 322.391 220.474 323.552 220.405C328.101 220.139 321.585 211.217 320.632 209.973C319.284 208.212 317.893 205.915 315.734 205.097C315.704 205.085 315.671 205.073 315.64 205.063C316.268 204.465 316.764 203.749 317.239 203.02C317.729 202.27 318.312 201.411 318.471 200.521C318.574 199.955 317.872 199.631 317.539 200.127C317.055 200.851 316.82 201.767 316.46 202.562C316.09 203.369 315.643 204.131 315.287 204.945C314.435 204.681 313.514 204.56 312.575 204.52C313.76 202.911 315.781 199.807 316.024 199.408C317.143 197.562 318.209 195.659 319.227 193.754C320.328 191.689 321.271 189.539 322.325 187.451C322.922 186.267 323.524 185.073 324.189 183.925C324.416 183.531 324.662 183.137 324.94 182.778C324.996 182.707 325.064 182.648 325.128 182.581C325.2 182.541 325.277 182.496 325.32 182.472C325.701 182.252 325.837 181.739 326.106 181.414C326.535 180.89 327.04 180.828 327.689 180.821C329.068 180.806 330.452 180.861 331.829 180.899C333.854 180.956 335.874 181.037 337.897 181.143C338.509 181.177 339.117 181.21 339.731 181.248C342.669 181.424 345.608 181.653 348.539 181.936C351.133 182.185 353.727 182.591 356.322 182.786C352.807 191.174 348.911 199.411 344.498 207.361C344.453 207.441 344.42 207.522 344.399 207.602ZM324.898 229.212C324.331 229.476 323.781 229.8 323.269 230.169C323.355 229.593 323.376 228.987 323.353 228.375C323.774 228.831 324.315 229.092 324.898 229.212ZM349.096 214.783C349.056 214.788 349.019 214.809 349 214.85C348.216 216.475 348.544 218.29 349.824 219.565C350.496 220.229 351.957 220.979 351.911 222.071C351.871 222.953 350.913 223.693 350.506 224.422C350.124 225.102 349.984 225.847 350.288 226.581C350.677 227.524 351.765 227.898 352.14 228.824C352.613 230 351.845 231.416 351.306 232.439C350.805 233.386 350.157 234.332 349.728 235.333C346.848 236.831 344.271 239.129 342.056 241.462C339.63 244.013 337.549 247.014 333.697 246.938C333.313 246.931 333.02 247.136 332.845 247.418C331.772 247.467 330.698 247.489 329.625 247.493C327.741 247.503 325.856 247.484 323.973 247.425C323.84 246.966 323.938 246.346 323.931 245.958C323.908 244.711 323.896 243.467 323.842 242.223C323.828 241.875 323.814 241.527 323.8 241.182C324.479 242.412 325.802 242.971 327.307 242.887C329.731 242.745 332.168 242.346 334.568 241.988C335.832 241.8 337.094 241.586 338.352 241.358C339.387 241.175 340.848 241.222 341.569 240.387C341.74 240.194 341.749 239.837 341.482 239.707C340.766 239.355 340.316 239.55 339.529 239.703C338.569 239.891 337.609 240.067 336.645 240.234C334.795 240.556 332.941 240.855 331.082 241.118C330.023 241.269 328.963 241.415 327.902 241.532C326.977 241.631 325.933 241.767 325.186 241.067C323.683 239.653 324.526 237.283 325.476 235.853C325.495 235.825 325.495 235.799 325.488 235.776C326.387 235.564 327.282 235.317 328.174 235.143C329.892 234.811 331.62 234.532 333.353 234.282C336.909 233.772 340.489 233.436 344.067 233.097C344.952 233.01 344.961 231.611 344.067 231.693C338.928 232.166 333.765 232.615 328.696 233.607C327.427 233.854 326.165 234.134 324.91 234.452C324.317 234.597 323.683 234.828 323.06 234.835C323.023 234.835 322.985 234.835 322.948 234.833C321.73 234.795 321.555 233.748 322.222 232.878C322.306 232.77 322.391 232.664 322.477 232.561C323.66 231.148 325.13 230.202 326.647 229.227C328.345 228.994 330.037 228.476 331.702 228.095C335.807 227.157 339.911 226.217 344.02 225.278C344.823 225.095 344.481 223.851 343.676 224.034C340.56 224.742 337.441 225.452 334.322 226.162L329.759 227.202C328.848 227.409 327.71 227.823 326.638 227.973C326.109 228.046 325.596 228.055 325.132 227.947C323.638 227.59 323.561 225.713 324.207 224.599C324.929 223.345 326.294 222.562 327.506 221.852C329.607 220.621 331.84 219.736 334.022 218.715C334.411 218.63 334.797 218.544 335.186 218.459C337.439 217.961 340.014 217.716 342.133 216.803C342.77 216.532 342.421 215.526 341.793 215.54C340.147 215.576 338.427 216.164 336.818 216.513C335.076 216.893 333.334 217.27 331.592 217.648C331.419 217.685 330.384 218.018 330.227 217.944C330.129 217.897 330.094 217.55 330.059 217.322C329.953 216.572 329.876 215.785 329.991 215.032C330.246 213.345 331.646 212.553 333.065 211.905C336.219 210.464 339.679 209.563 343.123 209.202C343.917 209.119 344.711 209.067 345.509 209.04C346.446 209.012 347.218 208.846 347.694 209.774C348.441 211.236 348.853 213.115 349.096 214.783ZM344.715 267.782C344.027 265.393 344.214 262.844 343.744 260.406C343.5 259.15 343.168 257.901 342.805 256.674C342.515 255.684 342.025 254.628 341.971 253.593C341.967 253.525 342.049 253.485 342.105 253.518C343.074 254.075 343.819 255.282 344.371 256.229C345.034 257.363 345.54 258.548 345.949 259.797C346.762 262.28 347.429 265.278 346.38 267.782C346.069 268.528 344.973 268.678 344.715 267.782ZM323.465 236.138C324.046 236.081 324.627 235.968 325.207 235.839C324.559 236.476 323.959 237.241 323.624 238.092C323.573 237.438 323.507 236.789 323.421 236.14C323.435 236.14 323.451 236.14 323.465 236.138ZM317.881 285.87C316.855 285.151 316.109 284.147 315.24 283.26C314.385 282.39 315.722 281.047 316.577 281.917C317.319 282.675 317.961 283.618 318.834 284.231C319.255 284.525 319.45 285.057 319.173 285.529C318.93 285.946 318.3 286.162 317.881 285.87ZM312.166 258.261C314.036 257.447 315.877 256.563 317.834 255.978C319.005 255.627 319.499 257.459 318.338 257.807C316.535 258.348 314.842 259.152 313.121 259.9C312.014 260.38 311.054 258.743 312.166 258.261ZM292.414 257.692C291.955 256.558 293.786 256.069 294.235 257.186C294.755 258.473 295.35 259.728 295.867 261.015C296.324 262.148 294.498 262.637 294.046 261.518C293.526 260.232 292.931 258.978 292.414 257.692ZM272.917 280.335C272.611 280.742 272.105 280.965 271.625 280.676C271.222 280.434 270.976 279.789 271.285 279.378C272.184 278.171 273.098 276.979 274.154 275.905C275.008 275.032 276.345 276.375 275.49 277.247C274.547 278.207 273.72 279.258 272.917 280.335ZM270.129 153.286C270.995 153.881 271.756 154.604 272.496 155.348C273.357 156.213 272.021 157.555 271.161 156.69C270.536 156.063 269.906 155.426 269.176 154.925C268.752 154.635 268.562 154.095 268.836 153.626C269.08 153.206 269.707 152.997 270.129 153.286ZM298.494 183.835C298.003 184.821 297.563 185.789 297.534 186.91C297.504 188.131 295.615 188.132 295.645 186.91C295.68 185.442 296.219 184.17 296.863 182.877C297.406 181.782 299.035 182.745 298.494 183.835ZM308.902 159.3C309.918 158.619 310.862 160.265 309.855 160.939C309.04 161.485 308.223 162.032 307.406 162.579C306.39 163.259 305.446 161.614 306.453 160.94C307.268 160.393 308.085 159.846 308.902 159.3ZM263.76 202.197C263.587 203.404 261.765 202.888 261.939 201.693C262.203 199.846 262.529 198.024 263.027 196.225C263.353 195.048 265.174 195.551 264.849 196.73C264.35 198.529 264.025 200.351 263.76 202.197ZM257.134 223.943C255.919 223.917 255.919 222.019 257.134 222.045C258.237 222.068 259.319 222.36 260.379 222.626C261.562 222.922 261.056 224.754 259.878 224.458C258.979 224.232 258.066 223.964 257.134 223.943ZM254.69 267.749C254.271 267.954 253.842 268.137 253.421 268.333C252.575 268.721 251.73 269.109 250.885 269.499C249.124 270.31 247.364 271.126 245.605 271.945C242.086 273.581 238.541 275.159 235.013 276.777C231.414 278.43 227.827 280.102 224.242 281.783C222.554 282.576 220.855 283.338 219.155 284.109C217.703 284.77 215.91 285.922 214.315 286.03C214.233 286.035 214.207 285.932 214.254 285.877C214.856 285.191 215.816 284.791 216.607 284.342C217.415 283.886 218.239 283.455 219.059 283.02C220.768 282.11 222.477 281.207 224.203 280.33C227.654 278.576 231.112 276.836 234.57 275.096C238.096 273.32 241.618 271.535 245.177 269.823C246.851 269.017 248.53 268.215 250.206 267.413C251.114 266.98 252.025 266.545 252.934 266.115C253.327 265.927 253.716 265.725 254.116 265.558C254.65 265.337 255.057 265.381 255.608 265.245C256.504 265.024 256.893 266.169 256.205 266.67C255.636 267.079 255.338 267.432 254.69 267.749ZM242.074 287.215C241.88 286.743 242.287 286.167 242.735 286.049C243.271 285.906 243.702 286.233 243.896 286.71C244.416 287.977 245.153 289.139 246.102 290.12C246.951 290.997 245.617 292.339 244.767 291.462C243.575 290.232 242.721 288.796 242.074 287.215ZM232.796 256.744C231.934 255.879 233.268 254.536 234.13 255.401L236.579 257.861C237.441 258.727 236.104 260.069 235.242 259.204L232.796 256.744ZM207.67 252.732C205.91 253.252 203.856 253.727 202.655 255.237C202.596 255.312 202.498 255.216 202.533 255.143C204.069 251.942 208.478 250.818 211.529 249.699C213.688 248.904 215.9 248.248 218.134 247.66C217.911 245.099 218.527 242.358 218.74 239.811C218.97 237.092 219.155 234.365 219.251 231.637C219.347 228.855 219.37 226.054 219.281 223.272C219.19 220.498 218.832 217.759 218.675 214.996C218.658 214.729 219.028 214.716 219.11 214.937C220.037 217.501 220.433 220.342 220.735 223.047C221.047 225.831 221.15 228.61 221.11 231.411C221.068 234.292 220.901 237.165 220.672 240.037C220.564 241.398 220.438 242.757 220.318 244.119C220.229 245.156 220.187 246.186 219.976 247.19C221.323 246.858 222.671 246.546 224.018 246.24C228.309 245.266 232.618 244.363 236.891 243.312C238.988 242.795 241.056 242.176 243.142 241.629C245.109 241.111 247.186 240.483 249.204 240.253C249.923 240.171 250.014 241.161 249.539 241.497C247.897 242.654 245.718 243.46 243.823 244.107C241.922 244.758 239.944 245.226 237.996 245.706C233.931 246.713 229.827 247.533 225.729 248.389C221.637 249.243 217.537 250.092 213.491 251.145C211.543 251.653 209.602 252.163 207.67 252.732ZM198.021 201.944C196.97 202.565 196.02 200.924 197.069 200.305C198.441 199.496 199.902 198.889 201.377 198.296C202.508 197.841 202.992 199.678 201.878 200.127C200.552 200.659 199.255 201.218 198.021 201.944ZM194.212 272.474C193.158 273.09 192.208 271.448 193.259 270.835C194.736 269.974 196.354 269.4 197.886 268.648C198.974 268.112 199.93 269.751 198.839 270.287C197.307 271.039 195.689 271.613 194.212 272.474ZM192.498 232.439C193.519 233.412 194.879 233.871 196.165 234.381C197.284 234.826 196.792 236.662 195.661 236.213C194.062 235.576 192.433 234.992 191.164 233.781C190.279 232.937 191.618 231.597 192.498 232.439ZM203.784 178.066C204.903 178.508 204.413 180.344 203.28 179.897C202.025 179.402 200.726 179.025 199.471 178.53C198.349 178.088 198.841 176.254 199.974 176.7C201.229 177.195 202.526 177.571 203.784 178.066ZM223.688 156.47C224.879 156.269 225.387 158.098 224.191 158.301C222.707 158.553 221.243 158.847 219.836 159.394C218.7 159.836 218.211 158 219.335 157.564C220.742 157.017 222.203 156.722 223.688 156.47ZM230.265 209.052C229.173 208.512 230.131 206.876 231.217 207.413C232.365 207.979 233.552 208.417 234.802 208.684C235.994 208.939 235.486 210.769 234.299 210.515C232.892 210.214 231.552 209.689 230.265 209.052ZM236.476 179.433C237.654 179.11 238.15 180.941 236.98 181.264C234.919 181.831 232.796 182.126 230.721 182.631C229.536 182.919 229.038 181.088 230.218 180.801C232.294 180.295 234.416 180.001 236.476 179.433ZM262.828 170.139C264.025 170.361 263.514 172.19 262.325 171.97C261.061 171.734 259.778 171.731 258.494 171.73C257.277 171.729 257.279 169.831 258.494 169.832C259.953 169.832 261.391 169.872 262.828 170.139ZM348.771 180.057C345.685 179.76 342.592 179.523 339.497 179.345C339.351 179.337 339.211 179.328 339.066 179.321C339.049 179.288 339.028 179.257 339.007 179.224C337.996 177.733 337.251 176.243 336.607 174.558C335.992 172.954 335.392 171.3 334.444 169.853C333.36 168.204 331.899 166.913 330.295 165.795C329.323 166.451 328.422 167.22 327.598 168.035C326.729 168.892 325.392 167.55 326.261 166.693C326.994 165.968 327.776 165.299 328.604 164.695C327.649 164.112 326.673 163.563 325.722 163.018C322.159 160.975 318.509 159.086 314.786 157.359C313.053 156.554 311.302 155.84 309.536 155.116C308.586 154.727 307.649 154.226 306.699 153.776C306.769 153.101 306.568 152.347 306.052 151.903C305.673 151.578 305.378 151.457 304.924 151.227C304.821 151.191 304.76 151.17 304.732 151.158C304.753 151.163 304.814 151.182 304.917 151.215C305.158 151.327 305.177 151.293 304.973 151.117C304.961 150.733 304.207 149.922 304.036 149.526C303.435 148.166 303.25 146.727 302.362 145.489C301.143 143.783 299.091 143.137 297.181 143.716C296.982 141.663 296.93 139.521 296.16 137.689C296.139 137.639 296.071 137.618 296.041 137.672C295.238 139.046 295.167 140.577 295.106 142.162C295.048 143.65 295.104 145.171 295.298 146.649C295.174 146.744 295.05 146.834 294.922 146.922C294.31 147.325 293.655 147.636 292.964 147.867C291.651 148.303 290.274 148.493 288.897 148.559C285.343 148.73 281.679 148.37 278.183 147.757C274.648 147.138 269.227 146.208 266.08 144.43C264.004 143.258 262.088 141.827 260.147 140.441C260.852 138.163 261.03 135.714 260.323 133.79C260.236 133.56 259.878 133.517 259.81 133.79C259.365 135.626 259.237 137.473 258.644 139.288C258.635 139.314 258.626 139.343 258.616 139.369C258.434 139.243 258.249 139.12 258.064 138.996C257.64 138.714 257.059 138.925 256.804 139.329C252.725 145.785 246.265 146.156 239.482 147.309C232.058 148.571 224.596 149.933 217.46 152.404C210.632 154.768 204.109 158.208 198.942 163.348C197.771 164.512 196.677 165.752 195.645 167.046C196.645 167.173 197.635 167.37 198.614 167.679C199.77 168.044 199.274 169.876 198.11 169.509C196.853 169.112 195.582 168.916 194.299 168.818C190.787 173.645 188.05 179.117 185.68 184.503C181.14 194.831 178.184 205.83 176.823 217.027C177.57 216.578 178.33 216.149 179.11 215.751C180.193 215.197 181.147 216.836 180.064 217.39C178.86 218.005 177.691 218.683 176.558 219.418C176.063 224.319 175.871 229.252 175.987 234.179C176.264 245.92 177.842 258.005 181.411 269.207C183.161 274.708 185.481 280.161 188.937 284.808C190.499 286.912 192.276 288.81 194.369 290.392C195.383 291.161 196.455 291.848 197.586 292.427C199.042 293.177 200.941 293.424 202.198 294.484C202.613 294.832 202.931 295.293 203.172 295.813C203.032 296.8 203.016 297.788 203.285 298.776C203.369 299.084 203.601 299.335 203.887 299.458C203.891 299.542 203.891 299.625 203.891 299.707C203.891 299.744 203.947 299.754 203.957 299.716C203.969 299.643 203.98 299.568 203.992 299.493C204.083 299.523 204.179 299.538 204.28 299.538C207.867 299.552 211.459 299.465 215.053 299.342C214.774 298.486 214.474 297.64 214.184 296.784C213.793 295.622 215.617 295.128 216.006 296.278C216.345 297.278 216.699 298.27 217.012 299.272C220.862 299.128 224.711 298.957 228.551 298.827C236.722 298.555 244.889 298.465 253.06 298.291C265.753 298.021 278.537 297.468 291.246 298.009C291.686 297.073 292.177 296.156 292.646 295.232C293.196 294.141 294.826 295.103 294.275 296.191C293.952 296.833 293.615 297.468 293.297 298.108C295.872 298.242 298.443 298.421 301.009 298.663C305.387 299.074 309.726 299.808 314.1 300.264C318.546 300.73 322.899 300.645 327.31 299.909C328.103 299.775 328.572 299.293 328.766 298.696C328.773 298.693 328.778 298.689 328.782 298.682C329.007 298.416 329.22 298.195 329.44 298.002C329.703 297.833 329.986 297.687 330.318 297.56C330.941 297.322 331.587 297.177 332.245 297.08C332.966 296.97 333.699 296.96 334.423 296.871C335.032 296.793 335.626 296.676 336.221 296.535C337.291 296.278 338.307 295.942 339.319 295.5C340.199 295.112 340.995 294.557 341.747 293.953C343.301 292.81 344.648 291.354 345.823 289.84C346.509 288.953 347.153 288.036 347.738 287.079C348.759 285.424 349.628 283.702 350.508 281.969C350.826 281.454 351.117 280.927 351.384 280.391C349.665 279.881 347.933 279.467 346.111 279.439C344.896 279.418 344.896 277.52 346.111 277.539C348.199 277.574 350.176 278.063 352.138 278.646C352.231 278.393 352.325 278.134 352.409 277.875C352.643 277.332 352.835 276.775 352.997 276.208C353.091 275.952 353.187 275.695 353.28 275.439C353.493 274.552 353.706 273.664 353.919 272.772C354.348 271.35 354.685 269.903 354.933 268.438C355.142 267.477 355.303 266.505 355.411 265.523C355.741 263.143 356.01 260.768 356.029 258.362C356.001 256.878 355.907 255.397 355.746 253.925C355.678 252.923 355.563 251.926 355.406 250.936C355.203 249.464 355.001 248.008 354.664 246.555C354.411 245.574 354.158 244.591 353.905 243.609C353.276 241.56 352.531 239.552 351.674 237.591C351.627 237.466 351.388 237.196 351.243 237.194C351.136 237.191 350.983 237.292 351.035 237.424C351.04 237.436 351.044 237.45 351.049 237.462C351 237.351 350.951 237.236 350.901 237.125C350.859 237.022 350.693 236.813 350.567 236.815C350.56 236.815 350.553 236.815 350.543 236.817C350.576 236.794 350.606 236.763 350.637 236.726C351.484 235.719 352.035 234.39 352.643 233.224C353.147 232.26 353.62 231.244 353.758 230.155C353.877 229.201 353.716 228.258 353.116 227.484C352.437 226.602 351.157 226.191 351.868 224.918C352.676 223.47 353.863 222.217 352.681 220.571C352.079 219.733 351.124 219.273 350.414 218.544C349.6 217.702 349.213 216.575 349.234 215.424C349.284 215.452 349.349 215.438 349.372 215.367C350.059 213.288 349.562 211.006 348.862 208.981C348.478 207.883 347.668 207.581 346.727 207.527C350.808 199.518 354.627 191.381 358.031 183.056C358.143 182.783 358.256 182.51 358.366 182.237C358.532 181.829 358.181 181.286 357.778 181.196C354.835 180.548 351.768 180.341 348.771 180.057Z" fill="black"/>
<path fill-rule="evenodd" clip-rule="evenodd" d="M314.722 80.8625C314.161 73.5668 315.029 65.9198 312.229 58.9856C307.347 47.48 293.659 43.6437 283.046 39.2635C278.794 38.0012 264.488 37.8248 259.511 36.1545C248.244 32.3737 245.551 27.8691 236.6 35.0676C235.088 36.2973 234.142 37.6339 233.453 39.4598L233.482 39.4676C233.285 40.229 233.496 40.9886 233.94 41.5687C230.058 45.555 228.434 51.5312 230.426 56.8375C236.926 70.6457 236.619 78.1121 234.526 92.9567C231.791 106.815 238.04 111.877 248.389 119.418C247.968 120.239 247.879 121.33 248.429 122.054C260.396 138.95 282.962 147.016 302.294 138.441C310.143 134.932 313.645 126.535 315.645 118.959C317.975 110.475 318.691 101.536 316.795 92.8948C316.029 88.8982 315.034 84.9304 314.722 80.8625Z" fill="white"/>
<path fill-rule="evenodd" clip-rule="evenodd" d="M245.692 0.03276C247.143 -0.18638 248.239 0.719081 248.761 1.99533L248.789 2.06407C248.958 2.49833 249.143 2.92071 249.344 3.33599C252.98 1.54438 258.167 2.00474 260.468 5.63307C262.109 8.22442 261.107 11.2998 260.489 14.0478L260.082 15.8583C260.868 16.3606 261.459 17.2596 261.433 18.1906L261.428 18.2623L261.264 20.7871C261.789 20.2533 262.266 19.6718 262.695 19.0524C262.99 18.509 263.308 17.9752 263.65 17.4578C265.666 14.4133 270.189 17.0592 268.527 20.3196C268.206 20.9484 267.848 21.5441 267.464 22.1183C267.029 22.9656 266.673 23.8364 266.399 24.7311C267.185 25.0752 267.79 25.8394 267.853 26.9926C268.003 29.6861 266.593 31.9332 264.355 33.3451C263.697 33.7603 263.016 33.8412 262.4 33.687C262.29 33.8339 262.182 33.9811 262.079 34.1307C262.971 34.8592 263.776 35.6898 264.467 36.6104C266.551 36.2972 268.646 36.15 270.742 36.1453C273.301 34.8853 276.368 34.9114 279.119 35.3836C280.892 35.6874 282.592 36.2781 284.336 36.7031C286.172 37.1491 288.038 37.1656 289.897 37.4694C292.241 37.8515 294.296 38.9384 295.586 40.6729C297.008 40.7157 298.499 41.2996 299.738 42.0921C302.62 43.9383 305.483 45.8106 308.359 47.6688C309.461 48.382 309.873 49.5208 309.672 50.7909L309.658 50.8723L309.562 51.399L309.789 51.7233C310.667 52.9715 311.625 54.2787 312.194 55.6562C313.247 57.1822 314.2 58.7814 315.043 60.4308C316.179 62.6471 317.118 64.9966 317.752 67.4073C317.911 68.0173 318.068 68.6318 318.174 69.2535C318.321 70.1316 318.092 70.8126 317.968 71.6552C317.811 72.723 317.754 73.8052 317.588 74.8754C317.478 75.5848 316.879 75.9336 316.249 75.9526C316.485 77.7586 316.656 79.5763 316.82 81.3797C317.047 83.9568 317.204 86.5411 317.34 89.1252C318.033 90.1385 319.452 90.9406 320.477 91.2183C321.899 91.6002 323.385 91.1849 324.727 90.6986C325.57 90.3925 326.263 91.458 325.851 92.1698C324.559 94.4052 321.796 94.3957 319.702 93.4062C318.817 92.9886 318.04 92.3835 317.464 91.5955C317.499 92.3454 317.537 93.0953 317.574 93.8476L317.609 94.5288C318.035 102.486 318.956 110.717 317.466 118.596C314.889 132.243 303.648 142.634 289.916 143.441C282.711 143.865 276.71 141.726 273.725 140.533C270.742 139.341 271.901 136.909 273.973 137.604C277.541 138.802 284.097 140.586 289.965 139.815C303.791 137.999 315.516 131.056 314.31 101.152C314.139 96.9109 313.615 92.6681 313.5 88.4275C313.393 84.282 313.432 80.1339 313.25 75.9907L313.189 74.577C313.119 72.9252 313.044 71.2658 312.92 69.6119C312.772 68.9711 312.648 68.3209 312.465 67.6921C311.974 65.9811 311.327 64.3177 310.527 62.7301C310.349 62.8656 310.152 62.9627 309.937 63.0008C308.305 63.295 306.773 63.212 305.245 62.5286C304.533 62.2128 303.903 61.7928 303.318 61.2731C303.039 61.0288 302.854 60.7915 302.706 60.5446C301.967 60.5566 301.227 60.3335 300.765 59.7996C300.236 59.1911 300.15 58.5625 300.356 57.9805L300.377 57.9224L300.325 57.9036C299.702 59.5243 298.459 60.9505 297.097 61.9139C294.942 63.4422 292.248 63.8836 289.663 63.9238C286.811 63.9666 283.802 63.5252 280.986 63.0744C280.241 62.9557 279.503 62.8204 278.778 62.6377C278.75 62.6662 278.721 62.6993 278.689 62.7278C276.272 65.0511 272.875 65.6491 269.808 64.3226C268.038 63.556 266.551 62.3221 265.237 60.9077C265.219 61.6482 265.181 62.3885 265.118 63.1217L265.092 63.413C264.961 64.7786 264.708 66.2273 263.683 67.2129C262.02 68.8098 259.611 68.1693 257.696 67.1299C257.698 67.1797 257.698 67.2319 257.698 67.2841C258.216 69.0494 258.735 70.8176 259.255 72.5854L259.368 72.9619C259.745 74.2172 260.159 75.4741 260.274 76.7879C260.492 79.2986 258.827 81.7783 256.05 80.936C254.594 80.4958 253.425 79.265 252.306 78.279L251.601 77.6659C253.425 83.6626 254.692 89.8728 254.809 96.1305C254.818 96.4698 254.526 96.7261 254.205 96.7379C253.453 96.7687 252.646 96.6194 251.892 96.3179C251.847 96.3155 251.805 96.3132 251.761 96.3059C250.47 96.1185 249.274 95.651 248.218 94.9606C248.462 95.7366 248.569 96.5695 248.506 97.4403C248.49 97.6515 248.162 97.7251 248.115 97.4925C247.504 94.4811 243.997 92.2055 240.974 92.7821C237.729 93.4015 235.338 96.2064 234.753 99.3979C234.123 102.827 235.326 106.792 237.553 109.438C238.579 110.658 239.927 111.676 241.529 111.932C242.262 112.049 243.023 112.008 243.732 111.799C244.034 111.709 244.317 111.583 244.605 111.465C245.027 111.294 245.518 111.268 245.914 111.087C246.816 110.682 247.719 111.515 247.263 112.442C246.867 113.252 246.511 113.798 245.851 114.215C246.385 114.87 246.869 115.781 247.05 116.026C247.965 117.269 248.895 118.444 249.939 119.58C251.002 120.734 252.163 121.787 253.388 122.763L253.903 123.172C255.085 124.113 256.113 124.985 256.944 126.334C257.602 127.4 256.752 128.845 255.521 128.828C251.672 128.774 248.871 125.375 246.879 122.407C246.595 121.982 246.329 121.533 246.08 121.073C245.991 121.218 245.891 121.353 245.781 121.477L246.001 122.07C246.652 123.816 243.844 124.958 243.03 123.327C242.435 122.146 241.749 121.021 240.983 119.958C240.531 119.894 240.091 119.619 239.845 119.263C239.222 118.358 238.527 117.445 237.939 116.481C237.612 116.171 237.277 115.871 236.935 115.58C236.837 115.668 236.734 115.755 236.638 115.848C236.207 116.832 235.675 117.732 235.017 118.579L234.875 118.76C233.613 120.358 231.969 121.994 229.934 122.385C229.311 122.504 228.714 121.728 229.265 121.232C230.691 119.946 232.374 119.07 233.687 117.635C234.334 116.927 234.928 116.148 235.439 115.332L235.556 115.143C235.64 115.003 235.727 114.863 235.818 114.721C235.226 114.315 234.631 113.907 234.039 113.498C232.407 114.899 230.281 115.54 228.476 116.701L228.298 116.818C226.666 117.915 224.945 115.49 226.254 114.158C227.696 112.696 228.899 110.953 230.178 109.328C229.578 108.216 229.293 106.901 229.187 105.572C229.145 105.196 229.112 104.819 229.08 104.443C228.162 104.457 227.242 104.142 226.462 103.598L226.167 103.387C225.219 103.691 224.226 103.838 223.273 103.812C221.035 103.745 220.117 101.175 221.517 99.5499C222.948 97.8887 225.448 97.5256 227.429 98.3325C227.495 98.2993 227.56 98.2638 227.623 98.2281C227.53 97.7916 227.551 97.3954 227.658 97.0476L227.626 96.8355C227.19 96.1636 226.905 95.3966 226.794 94.5862C226.71 93.9445 226.727 93.3082 226.874 92.6744C226.923 92.4635 227.026 92.2448 227.104 92.0249C226.944 91.6162 226.848 91.1939 226.82 90.769C226.773 90.7151 226.729 90.6599 226.687 90.6001C225.703 89.2129 225.902 87.5417 226.839 86.4193C226.841 86.3478 226.848 86.2763 226.858 86.2056C226.804 86.0816 226.755 85.9565 226.708 85.83C225.792 84.9035 225.123 83.7884 225.247 82.4066C225.322 81.5935 225.654 80.8617 226.158 80.3147C226.066 80.0495 226.059 79.7421 226.167 79.4856C225.364 77.3391 225.465 74.7536 226.043 72.3529C225.916 71.9874 225.851 71.591 225.865 71.171C225.931 69.389 227.466 67.7516 229.283 67.7728C229.503 67.7747 229.707 67.8036 229.906 67.8454L229.908 67.8031C229.976 67.2681 230.124 66.7738 230.337 66.3303C230.232 66.292 230.136 66.2372 230.049 66.1643C228.885 66.7891 227.651 67.2665 226.359 67.5917C225.408 67.8311 224.434 66.7454 225.024 65.8488C225.298 65.4328 225.603 65.0593 225.928 64.7181C225.465 64.7207 224.994 64.7522 224.519 64.8136C223.662 64.9253 222.709 64.3391 222.154 63.5466C221.463 64.2205 220.772 64.8919 220.079 65.5635C218.328 67.2698 215.68 66.0145 215.404 63.7648C214.882 63.6249 214.395 63.3876 213.966 63.0483C211.203 64.2537 208.23 64.9157 205.191 65.0415C203.006 65.1318 201.732 62.5782 202.751 60.7748C203.437 59.5645 204.287 58.4778 205.268 57.5332C203.746 58.0007 202.175 58.3377 200.571 58.5538C199.705 58.67 198.48 57.9485 198.131 57.149C196.804 54.0734 196.919 50.8676 198.445 47.8752C198.506 47.7565 198.572 47.6427 198.635 47.5286C198.794 47.1324 198.965 46.7408 199.152 46.3564C197.272 44.3867 197.108 41.4586 198.122 39.0071C197.717 38.3451 197.56 37.5477 197.836 36.8263C198.623 34.7499 199.756 32.8327 201.189 31.1856C201.051 30.9199 200.932 30.6375 200.829 30.3339C200.023 27.8777 200.957 24.9138 202.84 23.2029C204.022 22.1256 205.383 21.4801 206.837 21.0672C207.448 19.9803 208.234 19.0002 209.15 18.1746C209.185 18.0963 209.222 18.018 209.262 17.9396C210.688 15.2391 213.287 13.7915 216.071 13.4569C216.181 12.4008 216.888 11.3925 217.918 11.0649C218.202 10.1513 218.625 9.27803 219.206 8.48544C220.119 7.23724 221.639 6.64872 223.069 7.46741C223.854 7.91592 224.605 8.43086 225.31 9.00038C225.626 8.85144 225.984 8.75504 226.387 8.72431L226.49 8.71801L228.82 8.59935C229.794 8.16509 230.768 7.70946 231.744 7.26572C232.329 6.77923 232.983 6.37345 233.697 6.07208C234.505 5.73275 235.331 5.54054 236.16 5.47646C236.834 5.25577 237.511 5.06118 238.202 4.90931C239.822 4.55336 241.517 4.35402 243.198 4.37062C243.233 3.93333 243.25 3.49077 243.247 3.04301L243.243 2.81868C243.205 1.38301 244.348 0.23685 245.692 0.03276ZM244.057 114.899C243.828 114.948 243.594 114.989 243.36 115.017C243.43 115.193 243.5 115.368 243.57 115.544C243.758 115.651 243.95 115.753 244.142 115.848C244.085 115.525 244.05 115.2 244.057 114.899ZM231.924 111.276L231.765 111.566C231.742 111.614 231.716 111.661 231.69 111.707C232.025 111.681 232.36 111.688 232.69 111.726V111.691C232.648 111.676 232.603 111.663 232.564 111.643C232.336 111.533 232.123 111.409 231.924 111.276ZM238.483 98.0218C240.571 98.1441 242.341 98.4658 244.242 99.3843L244.406 99.4645C246.085 100.302 248.862 101.849 248.628 104.068C248.562 104.699 248.108 105.364 247.389 105.314C245.422 105.179 244.296 103.185 242.964 101.942C241.62 100.689 239.969 99.4005 238.342 98.5389C238.113 98.4178 238.204 98.0338 238.452 98.0216L238.483 98.0218ZM229.005 68.7884C228.504 68.8051 228.672 69.294 228.93 68.8858C228.951 68.8526 228.977 68.8195 229.005 68.7884ZM256.036 36.1544C251.292 36.2795 246.521 39.0929 242.966 41.9364C239.876 44.4102 237.209 47.3529 234.844 50.5245C234.238 52.1038 233.716 53.7162 233.273 55.3407C232.983 56.4132 232.8 57.4977 232.559 58.5799L232.482 58.9115C232.292 59.2703 232.149 59.6564 232.046 60.0553C232.477 60.4891 233.034 60.7998 233.65 60.9472C233.849 60.9945 234.013 61.0972 234.144 61.2336C234.638 60.4035 235.071 59.5273 235.322 58.5985L235.331 58.5557C236.284 56.9896 237.317 55.4723 238.424 54.0071C241.482 49.961 244.846 46.2734 248.892 43.2051C251.962 40.8794 255.392 39.0569 259.038 37.8729C258.145 37.1494 257.132 36.577 256.036 36.1544Z" fill="black"/>
<path fill-rule="evenodd" clip-rule="evenodd" d="M298.787 124.147C297.047 124.653 295.179 124.698 293.406 124.175C291.798 123.701 290.145 122.657 288.963 121.276C287.909 120.049 287.228 118.558 287.256 116.966C287.258 116.785 287.324 116.633 287.422 116.515C287.53 116.388 287.679 116.301 287.839 116.263C288.005 116.225 288.178 116.238 288.328 116.306C288.462 116.367 288.576 116.472 288.649 116.624C288.831 116.864 289.012 117.101 289.194 117.331C290.658 119.146 292.074 120.502 294.273 120.988C295.467 121.252 296.659 121.135 297.752 120.733C298.925 120.301 299.983 119.543 300.812 118.573C301.187 118.135 301.629 117.956 302.063 117.953C302.552 117.949 303.037 118.178 303.402 118.544C303.76 118.904 304.001 119.392 304.022 119.904C304.043 120.352 303.896 120.821 303.51 121.239C302.231 122.617 300.578 123.626 298.787 124.147ZM298.733 101.415C300.517 102.504 303.236 105.044 301.316 107.745C299.059 110.125 295.806 107.396 294.203 106.161C292.718 105.204 291.049 107.665 292.425 108.782C304.006 117.395 308.705 101.7 299.637 100.134C298.637 99.9619 298.267 101.078 298.733 101.415ZM282.048 96.6225C281.475 96.254 280.801 96.1277 280.054 96.4691C279.471 96.736 278.445 97.6256 277.733 98.7948C277.244 99.5948 276.9 100.533 276.97 101.511C276.989 101.738 276.904 101.905 276.773 102.029C276.668 102.127 276.518 102.199 276.343 102.221C276.193 102.24 276.024 102.223 275.888 102.18C275.628 102.099 275.49 101.93 275.439 101.792C274.94 100.46 275.155 98.974 275.715 97.6331C276.469 95.8236 277.841 94.3081 278.738 93.8194C280.276 92.983 282.088 92.9444 283.629 93.7966C284.94 94.5218 285.757 95.6929 286.572 96.8865C286.745 97.1403 286.919 97.3921 287.096 97.6395C287.452 98.1354 287.487 98.6271 287.349 99.0488C287.197 99.516 286.806 99.9101 286.319 100.117C285.87 100.307 285.347 100.334 284.884 100.138C284.495 99.9727 284.137 99.6501 283.91 99.1026C283.528 98.1806 282.891 97.1633 282.048 96.6225ZM311.163 98.6737C310.772 98.8792 310.463 98.9411 310.028 98.8101C309.787 98.7374 309.55 98.598 309.363 98.4108C309.178 98.2253 309.045 97.9946 308.993 97.7385C308.867 97.1069 308.522 96.5155 308.033 96.1298C307.614 95.8004 307.085 95.6256 306.497 95.7242C305.865 95.8305 305.261 96.2384 304.846 96.7193C304.706 96.8802 304.598 97.0631 304.488 97.2447C304.284 97.584 304.085 97.8996 303.802 98.1491C303.694 98.2438 303.533 98.3095 303.378 98.3095C303.315 98.3095 303.25 98.2991 303.189 98.2801C302.559 97.6444 302.437 97.1626 302.458 96.6843C302.479 96.183 302.676 95.6753 302.994 95.2017C303.739 94.0908 305.155 93.1798 306.111 92.9733C307.42 92.6909 308.719 93.03 309.761 93.7644C310.833 94.5199 311.627 95.6931 311.875 97.0152C311.936 97.3336 311.91 97.6771 311.789 97.9751C311.672 98.2664 311.465 98.5157 311.163 98.6737ZM284.935 84.7768C284.149 85.5455 283.219 85.6647 282.28 85.7706C281.758 85.8301 281.339 85.8778 280.929 85.9709C279.801 86.2268 278.686 86.6122 277.668 87.1671C276.605 87.7473 275.446 88.4469 274.612 89.3433C274.413 89.5565 274.228 89.7802 274.041 90.0045C273.87 90.2091 273.706 90.4059 273.533 90.5959C273.334 90.8139 273.144 91.0425 272.957 91.2703C272.84 91.4627 272.816 91.51 272.793 91.5594C272.758 91.6334 272.718 91.7162 272.671 91.8051C272.606 91.9267 272.531 92.0598 272.454 92.1806C272.322 92.4014 272.252 92.4621 272.191 92.4894C272.091 92.5343 271.995 92.5566 271.903 92.5447C271.817 92.5334 271.735 92.4913 271.653 92.4228C271.25 92.0805 271.131 91.5189 271.142 90.9226C271.161 90.0179 271.494 89.0162 271.8 88.4003C272.512 86.9694 273.5 85.482 274.687 84.414C276.041 83.1952 277.525 82.2722 279.227 81.6363C280.285 81.241 281.51 80.8782 282.662 80.924C283.491 80.957 284.284 81.2048 284.938 81.8235C285.34 82.2033 285.532 82.7437 285.532 83.2836C285.532 83.8343 285.331 84.3881 284.935 84.7768ZM312.76 91.8164C312.711 91.8987 312.643 91.9554 312.566 91.9895C312.484 92.025 312.395 92.0353 312.308 92.0207C312.222 92.0061 312.14 91.9669 312.077 91.9071C312.013 91.8498 311.967 91.7736 311.945 91.6805C311.423 89.3797 310.412 87.6678 308.251 86.564C307.188 86.021 305.966 85.676 304.807 85.4009C304.472 85.321 304.116 85.269 303.758 85.2165C302.636 85.0522 301.508 84.8638 300.777 83.9531C300.335 83.4044 300.15 82.7027 300.255 82.0612C300.353 81.4571 300.705 80.9031 301.344 80.5713C302.934 79.7452 304.91 80.5558 306.516 81.2462C306.635 81.2975 306.752 81.3478 306.867 81.3962C308.436 82.0622 309.869 82.9412 311.046 84.1983C311.981 85.1958 312.847 86.6703 313.196 88.187C313.484 89.4488 313.416 90.737 312.76 91.8164Z" fill="black"/>
</svg>
