<svg width="18" height="20" viewBox="0 0 18 20" fill="none" xmlns="http://www.w3.org/2000/svg">
<path d="M16.5 0.75H1.5C1.10218 0.75 0.720644 0.908035 0.43934 1.18934C0.158035 1.47064 0 1.85218 0 2.25V7.75312C0 16.1344 7.10625 18.9188 8.53125 19.3875C8.83572 19.4877 9.16428 19.4877 9.46875 19.3875C10.8938 18.9188 18 16.1344 18 7.75312V2.25C18 1.85218 17.842 1.47064 17.5607 1.18934C17.2794 0.908035 16.8978 0.75 16.5 0.75ZM13.6406 7.29375L8.14688 12.5438C8.00485 12.6774 7.81687 12.7512 7.62188 12.75C7.42975 12.7507 7.24487 12.6768 7.10625 12.5438L4.35938 9.91875C4.28319 9.85228 4.22123 9.77109 4.17722 9.68006C4.1332 9.58903 4.10805 9.49005 4.10328 9.38905C4.0985 9.28805 4.11419 9.18713 4.14941 9.09236C4.18463 8.99758 4.23865 8.9109 4.30822 8.83754C4.37779 8.76417 4.46148 8.70563 4.55426 8.66543C4.64703 8.62523 4.74697 8.6042 4.84808 8.60362C4.94919 8.60303 5.04937 8.62289 5.14261 8.66201C5.23584 8.70113 5.32021 8.7587 5.39062 8.83125L7.62188 10.9594L12.6094 6.20625C12.7552 6.07902 12.9446 6.01309 13.1379 6.02223C13.3312 6.03138 13.5135 6.1149 13.6467 6.25533C13.7798 6.39576 13.8535 6.58222 13.8524 6.77575C13.8513 6.96928 13.7754 7.15488 13.6406 7.29375Z" fill="#00FFA3"/>
</svg>
